<svg width="751" height="641" viewBox="0 0 751 641" fill="none" xmlns="http://www.w3.org/2000/svg"
     xmlns:xlink="http://www.w3.org/1999/xlink">
    <mask id="mask" maskUnits="userSpaceOnUse" x="0" y="0" width="747" height="641">
        <path d="M597.722 235.955C573.731 160.6 513.812 103.389 437.432 82.9227C361.052 62.4568 280.555 82.0442 222.107 135.309L81.2519 263.655C57.8829 284.945 42.3191 312.613 36.2454 343.639C30.1698 374.673 34.1616 406.157 47.7792 434.706C61.4165 463.239 83.4033 486.135 111.361 500.923C139.319 515.71 170.627 520.983 201.893 516.184L203.989 515.854C282.496 504.393 362.848 526.223 424.777 575.905C440.753 588.719 458.86 597.885 478.221 603.073C488.747 605.893 499.656 607.535 510.788 607.956C542.392 609.135 572.881 600.3 598.966 582.404C625.036 564.511 644.243 539.236 654.507 509.317C664.771 479.398 665.125 447.663 655.535 417.526L597.722 235.955Z"
              fill="#E5E5E5"/>
    </mask>
</svg>
